HIERARCHY
ROOT Hips
{
  OFFSET -21.9159 90.2461 -13.2575
  CHANNELS 6 Xposition Yposition Zposition Zrotation Xrotation Yrotation
  JOINT ToSpine
  {
    OFFSET -2.69724 7.43032 -0.144315
    CHANNELS 3 Zrotation Xrotation Yrotation
    JOINT Spine
    {
      OFFSET -0.0310711 10.7595 1.96963
      CHANNELS 3 Zrotation Xrotation Yrotation
      JOINT Spine1
      {
        OFFSET 13.1342 3.43533 0.764692
        CHANNELS 3 Zrotation Xrotation Yrotation
        JOINT Neck
        {
          OFFSET 29.8703 7.82586 -0.130764
          CHANNELS 3 Zrotation Xrotation Yrotation
          JOINT Head
          {
            OFFSET 9.52751 0.295786 -0.907742
            CHANNELS 3 Zrotation Xrotation Yrotation
            End Site
            {
              OFFSET 16.4037 0.713936 2.7358
            }
          }
        }
        JOINT LeftShoulder
        {
          OFFSET 27.5574 4.95586 2.47156
          CHANNELS 3 Zrotation Xrotation Yrotation
          JOINT LeftArm
          {
            OFFSET 1.20734 -0.998971 20.1238
            CHANNELS 3 Zrotation Xrotation Yrotation
            JOINT LeftForeArm
            {
              OFFSET 26.8049 -0.0536703 -0.155908
              CHANNELS 3 Zrotation Xrotation Yrotation
              JOINT LeftHand
              {
                OFFSET 26.6817 0 0.320147
                CHANNELS 3 Zrotation Xrotation Yrotation
                End Site
                {
                  OFFSET 18.6119 0 0.382219
                }
              }
            }
          }
        }
        JOINT RightShoulder
        {
          OFFSET 27.5927 4.71444 -2.65209
          CHANNELS 3 Zrotation Xrotation Yrotation
          JOINT RightArm
          {
            OFFSET 2.83739 -1.17114 -18.7564
            CHANNELS 3 Zrotation Xrotation Yrotation
            JOINT RightForeArm
            {
              OFFSET 28.839 -0.0548439 1.22491
              CHANNELS 3 Zrotation Xrotation Yrotation
              JOINT RightHand
              {
                OFFSET 26.5114 0 -0.101894
                CHANNELS 3 Zrotation Xrotation Yrotation
                End Site
                {
                  OFFSET 18.2168 0 0
                }
              }
            }
          }
        }
      }
    }
  }
  JOINT LeftUpLeg
  {
    OFFSET -4.76168 -1.9167 -10.2353
    CHANNELS 3 Zrotation Xrotation Yrotation
    JOINT LeftLeg
    {
      OFFSET 2.55951 -42.0585 -8.02213
      CHANNELS 3 Zrotation Xrotation Yrotation
      JOINT LeftFoot
      {
        OFFSET 3.16357 -42.5282 -3.95426
        CHANNELS 3 Zrotation Xrotation Yrotation
        JOINT LeftToeBase
        {
          OFFSET 0.346054 -6.02161 12.8035
          CHANNELS 3 Zrotation Xrotation Yrotation
          End Site
          {
            OFFSET 0.134235 -1.35082 5.13018
          }
        }
      }
    }
  }
  JOINT RightUpLeg
  {
    OFFSET -4.94151 -1.41743 10.6446
    CHANNELS 3 Zrotation Xrotation Yrotation
    JOINT RightLeg
    {
      OFFSET -2.56294 -42.0364 -7.94377
      CHANNELS 3 Zrotation Xrotation Yrotation
      JOINT RightFoot
      {
        OFFSET -3.0952 -42.555 -4.02241
        CHANNELS 3 Zrotation Xrotation Yrotation
        JOINT RightToeBase
        {
          OFFSET -0.0828122 -6.13587 12.8035
          CHANNELS 3 Zrotation Xrotation Yrotation
          End Site
          {
            OFFSET -0.131328 -1.35082 5.13018
          }
        }
      }
    }
  }
}
MOTION
Frames:	8
Frame Time:	0.0333333
-38.4103 90.6517 -8.11172 72.6572 7.16983 5.5386 -70.1915 0 88.8779 78.7031 71.6957 3.63558 5.16333 20.49 4.0877 -124.586 43.2412 151.002 115.43 81.3479 -90.5787 0.0967661 -16.9023 -24.0146 -62.9621 35.2016 -149.452 24.3264 -4.6389 -99.4095 0.420957 0.000575242 0.35866 -2.65226 7.45191 49.6462 -110.617 -14.0113 86.3112 11.8392 -9.60169 51.5191 0.58676 0.000331013 0.0646653 -43.379 19.3232 90.6047 -4.58981 52.1875 -9.93048 -1.77937 -13.7407 -1.17063 6.32777 -14.6659 13.6471 -36.5613 -13.1609 78.288 1.87678 40.8799 0.72833 -25.6197 5.49394 4.26975 2.85389 -26.6094 -6.50946 
-38.4679 90.5599 -8.74371 72.765 6.57249 5.4889 -70.1915 0 88.8779 79.2193 71.5529 4.31683 5.41815 20.6272 3.08017 -123.927 42.2942 149.836 121.799 82.1251 -95.4879 0.0741216 -17.2173 -23.6665 -62.8043 35.5787 -149.23 23.4188 -4.60484 -99.7627 0.420957 0.000575242 0.35866 -2.61618 7.12551 50.73 -109.769 -13.069 87.1609 12.1974 -9.79241 51.8311 0.58676 0.000331013 0.0646653 -44.3997 19.0383 91.5482 -3.97679 51.1182 -6.67107 0.489132 -14.5092 -1.24751 5.73247 -13.4072 10.0086 -36.2577 -12.7774 79.7376 2.46044 41.4276 5.03661 -23.7221 7.66227 4.20175 2.0833 -26.9261 -16.2823 
-38.541 90.5306 -9.24365 72.5445 6.2633 5.1272 -70.1915 0 88.8779 81.3098 71.387 2.30989 4.02619 20.4006 3.12259 -124.811 41.1199 151.242 133.5 81.8808 -106.197 0.14906 -16.7072 -23.6049 -62.1004 35.6556 -148.831 23.969 -4.88532 -100.102 0.420957 0.000575242 0.35866 -2.60587 6.84366 52.0172 -108.788 -11.8884 87.8929 12.1346 -9.74668 51.8121 0.58676 0.000331013 0.0646653 -45.0007 18.2397 91.4991 -3.89703 50.3944 -6.92275 -0.885242 -14.5637 -1.25143 6.69925 -14.9576 9.14813 -35.7868 -13.141 80.0886 2.17229 41.14 2.8891 -23.2377 6.76623 3.99684 2.43602 -26.3826 -11.7891 
-38.6488 90.4262 -9.78955 72.5565 5.97913 4.72327 -70.1915 0 88.8779 76.0575 71.9832 6.6177 5.71032 20.8317 4.37644 -126.552 40.003 151.978 148.611 82.1175 -120.469 -0.0466508 -17.7651 -24.3012 -63.6366 34.8317 -148.111 23.4711 -4.55876 -99.6362 0.420957 0.000575242 0.35866 -2.49638 6.77267 50.8959 -110.071 -12.6341 86.6665 10.9314 -8.51846 52.5445 0.58676 0.000331013 0.0646653 -44.9761 18.0993 92.2976 -4.11499 50.9267 -7.92808 -0.945585 -14.7826 -1.27126 6.89326 -15.3074 9.5386 -35.3967 -13.2596 81.2914 2.22467 41.4187 3.07156 -22.7569 6.88135 3.91902 2.36282 -26.1876 -12.7211 
-38.6858 90.4523 -10.2652 72.7203 5.8038 4.21242 -70.1915 0 88.8779 78.5081 72.0315 4.14836 4.75686 20.8724 4.00388 -127.204 38.3049 153.927 158.462 80.5991 -129.424 0.13593 -16.8188 -23.5654 -63.0756 34.8949 -148.519 23.5645 -4.4749 -99.4082 0.420957 0.000575242 0.35866 -2.52095 6.68471 51.6934 -110.015 -12.6089 86.11 11.3497 -8.77251 52.802 0.58676 0.000331013 0.0646653 -45.4677 17.9088 93.4269 -4.24067 50.9335 -8.89566 -1.59763 -15.3633 -1.32857 6.79647 -15.1774 10.0451 -35.4364 -13.5776 82.0247 2.14069 41.1702 2.60412 -23.3106 7.30656 4.0768 2.40927 -26.32 -12.1264 
-38.7173 90.4399 -10.7479 72.5975 5.7375 3.80652 -70.1915 0 88.8779 77.2204 72.0619 5.67281 5.00799 21.0941 3.49409 -128.124 37.1667 155.923 163.352 79.2476 -134.045 0.135574 -16.7921 -23.6327 -63.7462 34.7136 -147.807 23.8251 -4.4202 -99.1693 0.420957 0.000575242 0.35866 -2.54359 6.77345 51.538 -109.718 -13.0531 85.1609 11.4821 -8.73459 53.2482 0.58676 0.000331013 0.0646653 -45.5987 17.3761 93.9934 -4.33918 50.9832 -9.5853 -1.93196 -15.8117 -1.37577 7.04706 -15.6563 11.2959 -35.2664 -13.9817 82.6449 2.07127 40.9031 2.26841 -23.5356 7.58543 4.15529 2.46001 -26.6439 -11.5559 
-38.6771 90.3999 -11.2282 72.6979 5.96354 3.83687 -70.1915 0 88.8779 77.0414 72.0398 5.87572 5.19624 21.0236 3.74395 -128.93 37.075 157.948 162.297 78.4702 -133.192 0.164114 -16.4357 -24.0017 -64.1596 34.5763 -147.842 22.9585 -4.22508 -99.1345 0.420957 0.000575242 0.35866 -2.56151 6.84661 51.4026 -109.492 -13.2208 84.6184 12.5696 -9.56864 53.322 0.58676 0.000331013 0.0646653 -45.5582 17.0904 94.0487 -4.44305 51.3829 -9.8773 -1.82751 -16.198 -1.41295 6.90899 -15.4506 11.5899 -35.5244 -14.1118 83.143 2.10532 40.7797 2.65203 -23.3211 8.20172 4.18836 2.31545 -26.6922 -13.4034 
-38.6581 90.3168 -11.5835 72.7117 6.21886 3.86119 -70.1915 0 88.8779 77.0711 72.0463 6.22345 5.46639 21.1255 3.32803 -129.454 36.8523 159.079 162.536 77.9532 -133.689 0.169011 -16.4107 -23.9782 -64.272 34.7786 -147.905 22.6923 -4.19772 -99.1967 0.420957 0.000575242 0.35866 -2.5321 6.81236 51.1797 -109.591 -13.4409 84.3153 12.5266 -9.65922 52.9808 0.58676 0.000331013 0.0646653 -45.2884 16.7333 93.9155 -4.4096 51.8872 -8.82581 -1.22315 -16.2391 -1.40791 6.99178 -15.4983 10.0175 -35.7165 -14.3973 83.2377 1.85618 40.5698 0.812253 -24.2833 7.21253 4.2542 2.62204 -26.3463 -9.31736 
